<svg width="24" height="24" viewBox="0 0 24 24" fill="none" xmlns="http://www.w3.org/2000/svg">
<path fill-rule="evenodd" clip-rule="evenodd" d="M0 12C0 5.37258 5.37258 0 12 0C18.6274 0 24 5.37258 24 12C24 18.6274 18.6274 24 12 24C5.37258 24 0 18.6274 0 12ZM19.6 11.5619C19.6 8.27448 16.2805 5.6 12.1999 5.6C8.11992 5.6 4.8 8.27448 4.8 11.5619C4.8 14.509 7.43262 16.9772 10.9887 17.4439C11.2298 17.4954 11.5577 17.6016 11.6407 17.8061C11.7153 17.9919 11.6895 18.2829 11.6646 18.4704C11.6646 18.4704 11.5777 18.9889 11.559 19.0993C11.5268 19.285 11.4103 19.8257 12.1999 19.4953C12.9898 19.1649 16.4617 17.0041 18.0142 15.2299C19.0866 14.0624 19.6 12.8776 19.6 11.5619Z" fill="white"/>
<path fill-rule="evenodd" clip-rule="evenodd" d="M10.6572 10H10.1429C10.0641 10 10 10.0662 10 10.1474V13.4526C10 13.534 10.0641 13.6 10.1429 13.6H10.6572C10.7361 13.6 10.8 13.534 10.8 13.4526V10.1474C10.8 10.0662 10.7361 10 10.6572 10Z" fill="white"/>
<path fill-rule="evenodd" clip-rule="evenodd" d="M14.2497 10H13.7083C13.6253 10 13.558 10.0662 13.558 10.1474V12.111L12.0169 10.0656C12.0133 10.0603 12.0093 10.0554 12.0052 10.0506L12.0041 10.0497C12.0012 10.0464 11.9982 10.0435 11.9951 10.0406C11.9942 10.0397 11.9933 10.039 11.9923 10.0381C11.9898 10.0358 11.9871 10.0336 11.9843 10.0316C11.9831 10.0304 11.9818 10.0295 11.9805 10.0285C11.9778 10.0268 11.9753 10.0249 11.9726 10.0233C11.9711 10.0222 11.9697 10.0214 11.968 10.0206C11.9654 10.019 11.9627 10.0174 11.9601 10.0161C11.9584 10.0154 11.9569 10.0145 11.9553 10.014C11.9525 10.0127 11.9497 10.0113 11.9467 10.0103C11.945 10.0097 11.9435 10.0092 11.9419 10.0086C11.9389 10.0076 11.9359 10.0065 11.9328 10.0058C11.9312 10.0052 11.9294 10.0049 11.9276 10.0044C11.9247 10.0038 11.9219 10.0031 11.9191 10.0025C11.917 10.0022 11.9148 10.0019 11.9127 10.0017C11.91 10.0012 11.9074 10.001 11.9047 10.0007C11.9022 10.0004 11.8997 10.0004 11.897 10.0003C11.8951 10.0003 11.8936 10 11.8917 10H11.3505C11.2675 10 11.2 10.0662 11.2 10.1474V13.4526C11.2 13.534 11.2675 13.6 11.3505 13.6H11.8917C11.9748 13.6 12.0422 13.534 12.0422 13.4526V11.4896L13.5852 13.5376C13.5959 13.5525 13.609 13.5645 13.6234 13.5741C13.6238 13.5744 13.6244 13.5748 13.6249 13.5753C13.628 13.5772 13.6311 13.5791 13.6342 13.5808C13.6357 13.5817 13.637 13.5823 13.6385 13.583C13.6407 13.5843 13.6432 13.5855 13.6456 13.5865C13.6481 13.5875 13.6503 13.5885 13.653 13.5895C13.6544 13.5901 13.6559 13.5907 13.6574 13.5911C13.661 13.5924 13.6642 13.5935 13.6676 13.5945C13.6684 13.5945 13.6691 13.5948 13.6698 13.5949C13.6821 13.5981 13.695 13.6 13.7083 13.6H14.2497C14.3328 13.6 14.4 13.534 14.4 13.4526V10.1474C14.4 10.0662 14.3328 10 14.2497 10Z" fill="white"/>
<path fill-rule="evenodd" clip-rule="evenodd" d="M9.45381 12.7724H8.02047V10.1477C8.02047 10.0662 7.95487 10 7.87414 10H7.34648C7.2656 10 7.2 10.0662 7.2 10.1477V13.4521C7.2 13.4918 7.21571 13.528 7.24094 13.5545C7.24152 13.5552 7.2421 13.5559 7.24296 13.5567C7.24368 13.5574 7.2444 13.558 7.24512 13.5587C7.27151 13.5843 7.30697 13.6 7.34633 13.6H9.45381C9.53469 13.6 9.6 13.5337 9.6 13.4521V12.9201C9.6 12.8385 9.53469 12.7724 9.45381 12.7724Z" fill="white"/>
<path fill-rule="evenodd" clip-rule="evenodd" d="M17.0538 10.8276C17.1347 10.8276 17.2 10.7616 17.2 10.6799V10.1479C17.2 10.0663 17.1347 10 17.0538 10H14.9465C14.907 10 14.8711 10.016 14.8447 10.0417C14.8441 10.0423 14.8434 10.0427 14.843 10.0433C14.8421 10.0442 14.8414 10.0451 14.8407 10.0459C14.8156 10.0724 14.8 10.1082 14.8 10.1477V13.4523C14.8 13.492 14.8157 13.528 14.8409 13.5545C14.8415 13.5552 14.8422 13.5561 14.843 13.5567C14.8435 13.5574 14.8444 13.5581 14.8451 13.5587C14.8714 13.5842 14.907 13.6 14.9462 13.6H17.0538C17.1347 13.6 17.2 13.5337 17.2 13.4523V12.9201C17.2 12.8387 17.1347 12.7724 17.0538 12.7724H15.6206V12.2137H17.0538C17.1347 12.2137 17.2 12.1476 17.2 12.066V11.534C17.2 11.4524 17.1347 11.3861 17.0538 11.3861H15.6206V10.8276H17.0538Z" fill="white"/>
</svg>
